<svg width="124" height="30" viewBox="0 0 124 30" fill="none" xmlns="http://www.w3.org/2000/svg">
<path d="M7.91145 29.089V5.86141H0.83157H0V0.83157V0H22.1463V0.83157V5.02984V5.86141H14.6435L10.9826 4.45241L14.3561 6.30001V29.089H7.91145Z" fill="#1A9BFB"/>
<path d="M15.623 18.6816C15.623 15.6362 16.6275 13.1701 18.5887 11.3206C20.5552 9.43382 23.0957 8.50903 26.1411 8.50903C29.1067 8.50903 31.4984 9.47102 33.348 11.3578C35.1975 13.2445 36.1223 15.5565 36.1223 18.368C36.1223 18.6178 36.114 19.0959 36.114 19.0959L36.1064 20.2176H22.0032L19.8177 17.5085L21.3684 20.2176C21.4853 22.5295 23.489 24.0336 26.5291 24.0336C28.0863 24.0336 29.4735 23.5765 30.6906 22.6411L31.2658 22.1631L31.7678 22.6411L34.7518 25.4308L33.9372 26.2197C31.8007 28.1118 29.2024 29.089 26.2633 29.089C23.0638 29.089 20.5233 27.9666 18.5568 26.1542C16.5903 24.3047 15.6284 21.8758 15.6284 18.8304V18.6816H15.623ZM30.3451 16.4866C30.3451 14.6742 28.4583 13.2499 26.1464 13.2499C23.6431 13.2499 21.6022 14.6742 21.4481 16.4866H30.3451Z" fill="#1A9BFB"/>
<path d="M37.2051 29.089V0.820018V0H43.4476V0.820018V16.1174L50.164 8.50904H57.3868L49.4714 17.4139L45.9095 17.9086H49.4714L57.9805 29.089H51.4503L45.1974 21.3956L43.4361 23.2781V29.089H42.6444H37.9941H37.2051Z" fill="#1A9BFB"/>
<path d="M116.969 20.1573L114.476 18.4033C114.476 18.4033 113.827 19.8166 113.533 20.2728C113.244 20.729 112.903 21.2257 112.499 21.7569C112.095 22.2882 111.621 22.7791 111.067 23.2353C110.507 23.6915 109.843 23.9802 109.092 24.1073C108.526 24.1997 107.931 24.165 107.285 24.0149L106.264 23.7462L103.494 24.142L105.962 23.5009C111.148 18.8869 112.124 14.96 112.309 14.2497C112.493 13.5394 112.522 12.8695 112.418 12.2228C112.291 11.5471 111.991 10.9235 111.5 10.3633C111.003 9.80314 110.276 9.32961 109.3 8.9427C108.763 8.71748 108.22 8.59621 107.654 8.57311C107.1 8.54424 106.54 8.57889 105.979 8.67129C105.131 8.80411 104.328 9.05819 103.548 9.43933C102.774 9.82046 102.087 10.2709 101.475 10.7964C100.551 11.6049 99.7427 12.5231 99.0324 13.5452C98.3278 14.5673 97.837 15.6703 97.5482 16.8368C97.196 18.3614 97.1555 19.8339 97.3981 21.2199C97.4789 21.6934 97.5944 22.1554 97.7388 22.6058L97.5713 22.6809C96.7802 23.062 95.9313 23.2642 95.0651 23.293C94.5742 23.3104 94.0718 23.2757 93.5867 23.1718C92.3683 22.9234 91.2941 22.19 90.63 21.1275L90.4626 20.8618C89.6426 19.5625 88.9727 18.1881 88.4472 16.7502L87.1074 11.9334C86.6916 10.79 86.8672 9.21482 85.5851 8.50921L82.5974 8.50898H80.7369C80.7369 8.50898 79.7783 11.2954 79.2528 12.5658L76.3549 19.7415C76.2509 20.0592 75.7947 20.0476 75.7081 19.7242L73.68 11.3181L73.0194 8.50921H68.1713L67.1199 11.191L64.0084 19.0774L62.8384 10.7209C62.8038 10.4668 62.7345 10.2243 62.6305 9.99329C62.3707 9.42736 61.8625 9.02889 61.2966 8.76903C60.9154 8.59001 60.3726 8.45719 60.055 8.50339H57.397C57.397 8.50339 57.8582 11.8012 57.8698 11.9398L59.4643 29.0891H62.0368H64.4114C64.4114 29.0891 66.1924 28.5944 66.885 26.5166L69.5564 18.898L72.7226 29.0891H74.3057H74.4046L75.6909 29.0909H76.9266L78.6591 29.0891L82.4357 19.4239C82.4357 19.4182 82.453 19.4066 82.4588 19.4066C82.4646 19.4066 82.4761 19.4124 82.4761 19.4239C83.2326 21.6357 84.3297 23.7146 85.733 25.5856C85.733 25.5856 86.9977 26.96 87.8119 27.4162L88.759 27.9475C90.5261 28.9466 92.5352 29.0891 94.5888 29.0891H95.1824C96.7012 29.0371 98.2123 28.8888 99.5694 28.1958C100.037 27.9591 100.488 27.705 100.938 27.4393C101.002 27.4913 101.077 27.5491 101.14 27.6068C102.01 28.1987 103.197 28.4956 104.478 28.7707C105.349 28.9576 106.957 29.0891 108.342 28.9902C109.727 28.8912 110.778 28.8773 112.008 28.1727C112.655 27.8378 113.29 27.3758 113.925 26.7868C114.561 26.2035 115.121 25.551 115.612 24.8291C116.103 24.1073 116.478 23.3566 116.749 22.5539C117.044 21.7396 117.113 20.9485 116.969 20.1573ZM102.503 18.3209C102.734 17.4489 103.092 16.6578 103.571 15.9417C104.045 15.2257 104.628 14.6193 105.315 14.1111C105.795 13.7589 106.303 13.499 106.84 13.3488C107.181 13.2565 107.504 13.5567 107.429 13.9032C107.331 14.3941 107.157 14.8676 106.915 15.3354C106.886 15.4047 106.846 15.4624 106.805 15.5259C106.476 16.1554 106.078 16.7502 105.627 17.345C105.142 17.9976 104.611 18.6155 104.039 19.2103C103.462 19.8166 102.936 20.3537 102.468 20.8445L102.411 20.9196L102.393 20.8561C102.301 20.4172 102.278 19.9725 102.307 19.5279C102.324 19.1352 102.393 18.7252 102.503 18.3209Z" fill="#1A9BFB"/>
<path d="M120.858 28.9064C122.593 28.9064 124 27.4999 124 25.7649C124 24.0299 122.593 22.6234 120.858 22.6234C119.123 22.6234 117.717 24.0299 117.717 25.7649C117.717 27.4999 119.123 28.9064 120.858 28.9064Z" fill="#F5B100"/>
</svg>
